<?xml version="1.0" encoding="UTF-8"?>
<svg id="_레이어_2" data-name="레이어 2" xmlns="http://www.w3.org/2000/svg" viewBox="0 0 168.04 267.67">
  <defs>
    <style>
      .cls-1 {
        fill: #f8dad4;
      }

      .cls-2, .cls-3, .cls-4, .cls-5 {
        fill: #fff;
      }

      .cls-2, .cls-6, .cls-7, .cls-4, .cls-8, .cls-5, .cls-9, .cls-10, .cls-11, .cls-12, .cls-13 {
        stroke-miterlimit: 10;
      }

      .cls-2, .cls-7, .cls-4, .cls-8, .cls-5, .cls-9, .cls-12, .cls-13 {
        stroke-linecap: round;
      }

      .cls-2, .cls-7, .cls-4, .cls-5, .cls-13 {
        stroke: #00426d;
      }

      .cls-2, .cls-7, .cls-13 {
        stroke-width: 1.82px;
      }

      .cls-6 {
        fill: #ad7e2b;
      }

      .cls-6, .cls-8, .cls-9, .cls-10, .cls-11, .cls-12 {
        stroke: #004069;
      }

      .cls-6, .cls-9, .cls-10, .cls-11, .cls-12 {
        stroke-width: 2.03px;
      }

      .cls-7 {
        fill: #f0d365;
      }

      .cls-4 {
        stroke-width: 1.62px;
      }

      .cls-8 {
        stroke-width: 2.43px;
      }

      .cls-8, .cls-9, .cls-11 {
        fill: #16518b;
      }

      .cls-5 {
        stroke-width: 1.42px;
      }

      .cls-10 {
        fill: #fcf3d0;
      }

      .cls-14 {
        fill: #00426d;
      }

      .cls-12, .cls-13 {
        fill: none;
      }

      .cls-15 {
        fill: #231815;
        font-family: GangwonEduPowerExtraBold, GangwonEduPowerExtraBold;
        font-size: 15px;
      }
    </style>
  </defs>
  <g id="Front">
    <g id="Front-2" data-name="Front">
      <path id="tail" class="cls-11" d="M118.14,176.52c6.99.96,29.97,3.48,38.39-3.47,0,0,4.88-3.43,5.86-8.36.09-.47.73-.57.97-.15,2.53,4.5,9.3,19.49-6.09,29.08-.26.16-.16.56.14.58l5.55.35c.57.04.92.63.69,1.15-2.41,5.46-15.29,28.64-49.32-2.72-1.15-1.06-2.05-2.38-2.6-3.85-.98-2.63-1.97-6.87.21-9.97,1.39-1.98,3.81-2.96,6.2-2.63Z"/>
      <g id="leg">
        <path class="cls-11" d="M47.11,223.16s-7.29,7.33-3.09,12.38c.9,1.08,2.16,1.81,3.54,2.12,4.97,1.14,22.34,4.45,29.28-3.15,1.03-1.13,1.64-2.57,1.82-4.08l.73-6.38c.02-.16-.13-.28-.28-.24,0,0-15.66,4.74-31.92-.68"/>
        <path class="cls-11" d="M100.55,240.07s22.73,3.07,25.06-6.45c0,0,.94-3.71-1.36-9.58-.09-.22-.36-.3-.55-.17-1.67,1.1-9.55,4.88-35.61,1.47-.48-.06-.89.36-.81.84.5,3.09,2.9,12.66,13.29,13.9Z"/>
        <path id="_다리" data-name="다리" class="cls-5" d="M124.26,223.23l-1.23-30.65c-.03-.79-.88-1.28-1.57-.91-6.31,3.37-32.43,14.71-76.7.4-.9-.29-1.79.45-1.66,1.38l3.99,29.56c0,.05.04.1.1.12,4.87,1.43,18.39,4.58,32.14.61.05-.02.09-.06.1-.12l1.44-12.61c0-.07.07-.12.14-.12l2.15-.05c.06,0,.12.04.14.1l3.84,14.27c.01.05.06.09.11.1,6.1.98,25.33,3.48,36.93-1.95.05-.02.08-.08.08-.13Z"/>
      </g>
      <g id="L_arm">
        <path class="cls-11" d="M36.39,140.4c-.34-1.77-.98-3.06-1.55-3.92-.47-.71-1.53-.65-1.93.1-5.54,10.33-17.3,10.4-19.98,10.28-.3-.01-.54.24-.5.53.38,2.8,2.7,5.03,2.7,5.03,0,.01,0,.03,0,.04,5.03-.16,16.09-1.71,21.22-11.75.05-.1.07-.21.04-.31Z"/>
        <path class="cls-5" d="M65.02,130.14c-3.16-2.81-7.7-3.47-11.57-1.77-7.32,3.21-17.01,12.32-17.01,12.32,0-.04-.02-.09-.02-.13-5.09,10.18-16.23,11.74-21.29,11.9-.07,3.72,5.5,11.86,5.5,11.86,17.29,20.14,39.01-5.39,39.01-5.39,13.25-16.53,9.79-24.87,5.39-28.79Z"/>
      </g>
      <g id="body">
        <path class="cls-11" d="M49.67,132.09c-5.3,15.99-15.5,50.16-7.64,54.75,0,0-.48,5.07,1.27,6.03s37.91,11.26,78.7.96c1.21-.3,2.12-1.31,2.3-2.54s.21-2.67-.38-3.46c-.21-.28-.32-.63-.25-.98,1.17-6.42,10.11-59.71-13.28-68.35,0,0-22.85-9.7-48.84.9-5.62,2.29-9.96,6.93-11.86,12.7Z"/>
        <polygon class="cls-3" points="83.95 170.88 94.26 170.88 94.26 165.96 92.09 165.96 92.09 158.56 96.64 167.71 99.81 167.71 104.41 158.3 104.41 166.07 102.45 166.07 102.4 171.04 112.28 171.04 112.28 166.01 109.96 166.07 109.96 153.17 112.34 153.17 112.34 148.09 103.72 148.09 98.33 159.51 92.99 148.2 83.84 148.2 84 153.06 86.44 153.06 86.38 165.8 83.79 165.8 83.95 170.88"/>
        <path class="cls-12" d="M42.03,186.84s44.88,12.05,80.82.88"/>
        <path class="cls-8" d="M74.22,190.33s-4.23-22.89,2.85-45.51"/>
      </g>
      <path id="neck" class="cls-5" d="M54.4,125.31l2.85,11.73s37.77,20.32,61.93-12.29l3.42-16.18c.35-1.67-.71-3.31-2.38-3.66-9.82-2.06-41.74-6.24-65.35,19.76"/>
      <g>
        <path class="cls-5" d="M50.55,128.81c-.07-.37.3-.66.62-.47,3.84,2.26,20.65,12.12,25.65,14.78.41.22.32.85-.13.94-4.85.9-22.65,2.15-26.13-15.25Z"/>
        <path class="cls-5" d="M77.04,143.93c2.6-.84,19.31-6.69,41.92-19.19.34-.19.74.14.62.53-1.33,4.42-10.84,24.79-42.53,18.81-.08-.01-.09-.12-.02-.15Z"/>
      </g>
      <g id="face">
        <path class="cls-4" d="M52.02,48.24s-7.51-17.58,4.67-29.34c.64-.62,1.61-.74,2.38-.29,2.53,1.47,7.85,5.68,8.81,15.52,0,0,.79,14.43-15.86,14.11Z"/>
        <path class="cls-11" d="M157.62,101.77c.5.72.19,1.39-.68,1.48-3.9.39-8.37-3.33-9.96-4.79-.23-.21-.6-.04-.6.27.12,15.44,7.12,17.55,9.33,17.83.35.05.47.31.25.59-6.84,8.79-17.51.72-17.51.72,0,0,0,0,0,0-2.7,7.45,5.07,10.46,5.07,10.47h0c-5.23,5.71-14.11-1.42-14.11-1.43,0,0,0,0,0,0-1.88,4.46-1.85,7.37-1.55,8.93.1.52-.48.91-.92.61-9.4-6.48.09-29.98.1-29.99,0,0,0,0,0,0,12.05-21.41,2.54-46.46,2.54-46.46-9.99-26.79-26.63-12.53-26.64-12.53,0,0,0,0,0,0-24.26,26-51.52,10.63-51.54,10.62,0,0,0,0,0,0-17.32-6.15-14.61-23.03-13.92-26.26l.68-.88c2.42-1.17,4.21,2.4,4.21,2.4h0c5.86,6.02,14.1.64,14.11.63,0,0,0,0,0,0,17.92-17.6,34.4-16.65,34.41-16.65,0,0,0,0,0,0,38.05-1.74,35.68,25.83,35.68,25.85,0,0,0,0,0,0,17.28,3.33,22.67,20.13,22.68,20.14h0c3.56,2.89,7.18,1.3,8.61.52.33-.18.58-.02.55.36-.68,8.83-7.07,11.62-9.49,12.37-.3.09-.36.48-.11.66,3.86,2.75,5.28,15.35,5.36,16.04,0,.02,0,.04.01.06.13.45,1.74,5.97,3.46,8.46Z"/>
        <path class="cls-2" d="M48.22,54.27s-4.76,4.76-6.66,23.31c0,0,1.11,3.17-9.36,6.5-10.47,3.33-16.02,32.83,9.99,43.45,0,0,35.63,16.86,74.22-6.34,0,0,8.67-4.39,13-13,4.63-9.21,13.48-30.61,1.11-52.97,0,0,11.89-11.73,2.22-32.19,0,0-1.74-5.07-6.74-.32,0,0-9.28,8.96-11.02,18.71,0,0-5.87-4.33-17.6,6.24,0,0-15.01,19.45-46.31,6.87,0,0-1.27-1.37-2.85-.26Z"/>
        <path class="cls-14" d="M38.88,91.39c1.52-.4,4.74.08,5.82,3.41.2.6-.06,1.29-.64,1.54-.16.07-.33.11-.5.11-.52,0-1-.33-1.16-.86-.26-.85-.76-1.32-1.27-1.57-.37-.18-.82-.11-1.1.2-.06.07-.13.14-.2.2-.84.73-1.98.78-2.56.12s-.37-1.79.47-2.52c0,0,.36-.42,1.15-.63Z"/>
        <path class="cls-14" d="M73.63,94.39c-1.41-.69-4.66-.85-6.37,2.21-.31.55-.19,1.27.33,1.64.15.1.31.17.47.2.51.1,1.04-.13,1.3-.61.42-.78,1-1.15,1.55-1.29.4-.11.83.06,1.04.41.05.08.1.16.16.23.68.88,1.79,1.15,2.49.61s.71-1.68.03-2.56c0,0-.27-.48-1-.84Z"/>
        <path class="cls-13" d="M96.58,60.85s4.85-3.81,9.83,2.7"/>
        <path class="cls-1" d="M116.36,98.83c0,4.88-3.96,6.98-8.83,6.98s-8.83-2.1-8.83-6.98,3.96-8.03,8.83-8.03,8.83,3.16,8.83,8.03Z"/>
        <path class="cls-1" d="M34,84.45s-8.73,1.07-9.67,15.44c0,0,5.41,2.35,10.1-2.59,2.71-2.85,3.59-7.35,2.59-10.24-.56-1.6-1.3-2.48-3.01-2.61Z"/>
        <path class="cls-13" d="M62.71,61.49s-4.85-3.81-9.83,2.7"/>
      </g>
      <g id="book">
        <path class="cls-10" d="M110.62,198.97l-5.26-23.65c-.17-1.26-.49-2.16-.85-2.79l-5.52,1.69c-1.3.4-2.08,1.71-1.8,3.04l4.82,23.37c.54,2.64,3.23,4.25,5.81,3.49l2.68-.79c.64-2.07.13-4.36.13-4.36Z"/>
        <path class="cls-6" d="M133.49,166.35c-1.02-1.31-2.76-1.83-4.34-1.35l-24.64,7.53c.37.63.68,1.53.85,2.79l5.26,23.65s.51,2.29-.13,4.36l24.49-7.2c2.48-.73,4.3-2.86,4.63-5.43,1.5-11.51-2.92-20.25-6.13-24.35Z"/>
      </g>
      <g id="L_hand">
        <path class="cls-11" d="M4.34,121.24s-4.65,2.33-2.96,10.36c0,0,2.75,22.1,24.63,13.11,0,0,12.9-3.38,8.03-23.89,0,0-1.71-6.33-7.87-2.14-.26.18-.62.11-.78-.16-1.41-2.29-7.53-11.33-12.91-5.94,0,0-1.07.93-.98,2.53,0,.16-.13.3-.29.27-1.36-.18-6.59-.47-6.87,5.87Z"/>
        <path class="cls-9" d="M25.62,119.68s-1.36,2.74.07,4.32c.12.13.1.33-.04.43-1.02.73-4.41,3.48-4.07,7.94"/>
        <path class="cls-9" d="M11.21,115.37s4.02,2.8,5.69,8.75"/>
        <path class="cls-9" d="M4.93,121.27s5.23,5.15,5.31,6.9"/>
      </g>
      <g id="R_arm">
        <path class="cls-5" d="M148.35,179.12c6.9-9.89.67-25.39.67-25.39-11.99-35.79-28.67-28.02-28.67-28.02-16.36,7.94-.16,35.96-.16,35.96,3.22,4.96,2.96,8.82,2.32,10.99-.14.49-.37.95-.65,1.36,3.28,2.59,12.21,8.05,26.48,5.1Z"/>
        <g>
          <g>
            <path class="cls-11" d="M120.3,182.88s-9.29,5.61-7.77,11.55c0,0,1.4,5.18,7.02,4,0,0-3.35,10.04,2.59,10.69,0,0,2.81.97,4.32-1.3,0,0,4.64,3.13,8.31-1.84,0,0,11.6.1,9.84-17.94-.12-1.27-.87-2.39-2.01-2.97-3.27-1.66-10.94-4.5-22.3-2.2Z"/>
            <path class="cls-11" d="M121.96,174.09c-.32.46-1.02.79-1.47,1.13-4.05,2.99-1.64,7.66-1.64,7.66,14.62,8.3,26.6,4.66,26.6,4.66,0,0,4.16-2.78,2.69-8.42,0,0-15.55,3.9-26.17-5.03Z"/>
          </g>
          <path class="cls-9" d="M126.56,207.63s1.4-1.11,2.05-6.61"/>
          <path class="cls-9" d="M134.77,205.66s1.08-1.08.76-4.53"/>
          <path class="cls-9" d="M119.92,197.4s.76-2.29,1.77-3.35"/>
        </g>
      </g>
      <g id="Unicorn_horn" data-name="Unicorn horn">
        <path class="cls-7" d="M85.42,27.68c-1.16-4.74-2.61-10.05-4.23-14.68-4.32,8.65-10.91,11.84-15.37,13.01-.57,4.49-1.03,8.93-1.38,12.73,5.35.34,15.44-.57,20.97-11.06Z"/>
        <path class="cls-7" d="M81.19,12.99c-2.75-7.9-5.98-13.84-9.09-11.61-.07.05-.13.1-.19.16-2.72,2.8-4.73,13.73-6.09,24.45,4.45-1.17,11.05-4.36,15.37-13.01Z"/>
        <path class="cls-7" d="M88.06,39.55c-.44-2.18-1.37-6.68-2.64-11.87-5.53,10.49-15.62,11.4-20.97,11.06-.31,3.44-.54,6.35-.68,8.27-.11,1.49.93,2.82,2.4,3.09,5.02.89,16.08,1.62,21.43-7.71.49-.86.66-1.87.46-2.84Z"/>
      </g>
      <g id="R_eye">
        <ellipse class="cls-14" cx="97.9" cy="78.95" rx="9.43" ry="6.36" transform="translate(10.12 169.03) rotate(-84.62)"/>
        <ellipse class="cls-3" cx="99.34" cy="75.42" rx="1.73" ry="2.22"/>
      </g>
      <g id="L_eye">
        <ellipse class="cls-14" cx="57.91" cy="75.83" rx="9.42" ry="6.11" transform="translate(-22.56 127.09) rotate(-85.13)"/>
        <ellipse class="cls-3" cx="59.29" cy="72.29" rx="1.67" ry="2.22"/>
      </g>
      <path id="mouth" class="cls-14" d="M93.18,105.27c-1.44-1.12-3.16-.72-3.35-.67-.6.16-.95.76-.8,1.36.16.6.76.95,1.36.8,0,0,.35-.08.75,0-4.74,6.19-10.32,9.63-16.58,10.23-11.53,1.1-21.71-7.83-21.81-7.93-.5-.45-1.27-.4-1.72.1-.45.5-.4,1.27.1,1.72.42.37,9.81,8.64,21.4,8.64.74,0,1.49-.03,2.24-.1,6.74-.64,12.72-4.17,17.78-10.52.02.23.03.48.03.75,0,.62.49,1.12,1.1,1.13h.01c.61,0,1.11-.49,1.11-1.1.02-2.04-.53-3.52-1.64-4.39Z"/>
      <text class="cls-15" transform="translate(62.59 265.41)"><tspan x="0" y="0">Front</tspan></text>
    </g>
  </g>
</svg>
